PathFileType	4	(X/Y/Z)	D:\Research_projects\MuscleProsody\BulkSports2Dtrack\RetrackedSports2D\p1_sample60_cam3\p1_sample60_cam3_Sports2D\p1_sample60_cam3_Sports2D_px_person00.trc
DataRate	CameraRate	NumFrames	NumMarkers	Units	OrigDataRate	OrigDataStartFrame	OrigNumFrames
60	60	12	22	m	60	390	780
Frame#	Time	Hip			RHip			RKnee			RAnkle			RBigToe			RSmallToe			RHeel			LHip			LKnee			LAnkle			LBigToe			LSmallToe			LHeel			Neck			Head			Nose			RShoulder			RElbow			RWrist			LShoulder			LElbow			LWrist		
		X1	Y1	Z1	X2	Y2	Z2	X3	Y3	Z3	X4	Y4	Z4	X5	Y5	Z5	X6	Y6	Z6	X7	Y7	Z7	X8	Y8	Z8	X9	Y9	Z9	X10	Y10	Z10	X11	Y11	Z11	X12	Y12	Z12	X13	Y13	Z13	X14	Y14	Z14	X15	Y15	Z15	X16	Y16	Z16	X17	Y17	Z17	X18	Y18	Z18	X19	Y19	Z19	X20	Y20	Z20	X21	Y21	Z21	X22	Y22	Z22
390	6.5	256.1492372242464	543.2508288057712	0.0	229.1199792475431	545.9410488793253	0.0	213.5159242393906	662.1778172399305	0.0	221.48400631038373	772.0325907799383	0.0	186.2772388932418	809.3684478201504	0.0	182.39147199644208	796.4082836683233	0.0	232.64855597796807	786.2943097273703	0.0	281.83251265056543	539.5609273833527	0.0	266.1717056645772	663.6943241489373	0.0	259.0365133738715	789.9720853975869	0.0	224.88598998564626	825.8392960445959	0.0	243.11652861033397	831.1532915533154	0.0	265.940090635664	801.999412102718	0.0	186.8140863798636	382.43323449414055	0.0	114.10340647688541	318.7008069642673	0.0	127.4137620297014	370.3655689458982	0.0	164.77936341596026	435.3643779303864	0.0	139.9575238542381	494.01810902736514	0.0	72.41317296729595	524.952363159785	0.0	243.88070231300887	370.20102461362063	0.0	318.82922338852654	339.26224576017745	0.0	325.34141121580933	254.27568691826616	0.0
391	6.516666666666667	255.57614471357212	543.1031423631852	0.0	228.58819125345954	545.735339846185	0.0	213.2495074630402	662.1929067460073	0.0	221.5678722955005	772.1134360154819	0.0	186.21610428567732	809.4099195781497	0.0	182.4274457946894	796.4573734075057	0.0	232.73831495068848	786.408771029211	0.0	281.17309126158614	539.4460751502974	0.0	265.64191662799533	663.6973668687396	0.0	259.0402343595898	790.041202208263	0.0	224.80331882279037	825.8560802935601	0.0	243.01524856470158	831.135100172439	0.0	266.08708336067184	802.0357492274377	0.0	186.36149610760182	382.26667912055655	0.0	113.73031108094051	318.51082294461145	0.0	126.93923759902817	370.0036156674833	0.0	164.82055618653334	434.9921868660636	0.0	140.5974330212305	494.404169222589	0.0	72.81437269548294	525.7749928970934	0.0	243.0836903913877	370.3641137523127	0.0	318.65354573157737	341.11319281279475	0.0	326.4129693130928	257.0546934232963	0.0
392	6.533333333333333	254.79177931228165	543.00967640743	0.0	227.80562374071363	545.5860684495871	0.0	212.89260629517094	662.3138395936364	0.0	221.6223844240721	772.2127419701391	0.0	186.13798871041206	809.4504456810245	0.0	182.47963797004678	796.5159617555669	0.0	232.82728432273308	786.5562188864176	0.0	280.30137365218275	539.4917849593999	0.0	264.9605774445058	663.7995856662384	0.0	259.0195959679817	790.1463496743422	0.0	224.69989746371516	825.9052949561294	0.0	242.90608637119038	831.1113456751747	0.0	266.24595743126355	802.0795213049053	0.0	186.16709040281748	381.91532756015766	0.0	113.73966595339468	317.90116697726376	0.0	126.74885983461328	369.30689297579903	0.0	164.99090284318436	434.1585127174196	0.0	141.29582193490523	494.28762528361517	0.0	73.05901092776791	525.7519409686919	0.0	242.54970403223336	370.5281613790109	0.0	318.8021998992871	343.7510705262932	0.0	328.1652885765011	261.0989370285076	0.0
393	6.55	253.8201470749004	542.9842669720359	0.0	226.80741179799833	545.4939183415572	0.0	212.4733219278641	662.5117521545349	0.0	221.6560672043766	772.3156120496201	0.0	186.04068022172478	809.4931760536897	0.0	182.5401025566278	796.5744565259015	0.0	232.91614675237003	786.7160735085407	0.0	279.2335094394162	539.6917302054632	0.0	264.14813589503444	663.9913533255026	0.0	258.9790483712674	790.2842753820595	0.0	224.5787337530922	825.9901751073754	0.0	242.78798802643803	831.0945767494809	0.0	266.4191743592693	802.1300806524664	0.0	186.22124554219087	381.3847245840014	0.0	114.1282726815129	316.88023317648486	0.0	126.8390502718704	368.2835295892567	0.0	165.27665781977987	432.92452057399674	0.0	142.07550513264187	493.74664198865736	0.0	73.18558438373084	524.9828626168845	0.0	242.2853533957085	370.68950814159047	0.0	319.2183361694843	347.1937691535185	0.0	330.36365159855904	266.4683177876828	0.0
394	6.566666666666666	252.6879750781335	543.037092552735	0.0	225.63524128060433	545.4570206656765	0.0	212.01400158762766	662.755282515059	0.0	221.6806995062874	772.4088898468234	0.0	185.9243826488858	809.5429544675119	0.0	182.59816099710469	796.6297773479401	0.0	233.00401011369027	786.8671871915908	0.0	277.99199308774223	540.0307076241434	0.0	263.2248526172571	664.2572546180986	0.0	258.9248829905427	790.4533702477707	0.0	224.443551548032	826.1153142730523	0.0	242.66198190329584	831.0999812163014	0.0	266.6029104491226	802.1910694368255	0.0	186.5112600160705	380.68944322147007	0.0	114.88958250823607	315.46871210512404	0.0	127.20210932566914	366.9520559891305	0.0	165.66331205853908	431.36163894955325	0.0	142.96137704618627	492.8658087070651	0.0	73.24598988240217	523.5792304211757	0.0	242.29767623960225	370.852375180598	0.0	319.826114414988	351.454787221116	0.0	332.73697078609655	273.22994277553954	0.0
395	6.583333333333333	251.4222740368922	543.1713730354344	0.0	224.33222082584152	545.4706804727974	0.0	211.52935681369743	663.0147878742255	0.0	221.70672021415996	772.4862369725018	0.0	185.78823711449934	809.6058096744739	0.0	182.64092419045193	796.6852598005064	0.0	233.09006116541124	786.9942392190267	0.0	276.6036727347908	540.4841719470368	0.0	262.21227016427156	664.5780151890492	0.0	258.8624698698717	790.6560040171328	0.0	224.2966207248188	826.281929947839	0.0	242.52818352791525	831.1410928699822	0.0	266.789430491427	802.2711524743895	0.0	187.02276563303437	379.8488371422768	0.0	116.01322789292752	313.69989519478656	0.0	127.82710552153176	365.34021217820543	0.0	166.1406687257403	429.53957530671636	0.0	143.9796492330978	491.73411747343863	0.0	73.29839133861029	521.6618716920104	0.0	242.59460908234783	371.0267371372579	0.0	320.53546753404703	356.53758410479946	0.0	335.0020678903213	281.4492703719038	0.0
396	6.6	250.0505328391504	543.3814706792214	0.0	222.93873529011088	545.5279158215394	0.0	211.028984005478	663.2623414988697	0.0	221.7392459446188	772.548069054735	0.0	185.62898783320688	809.6874454911018	0.0	182.6573465898337	796.7451311727564	0.0	233.1745790199734	787.0904700284394	0.0	275.097274759327	541.0222200872718	0.0	261.13407743047253	664.9315320735602	0.0	258.79408990662205	790.8974477766382	0.0	224.1385793861671	826.484748622815	0.0	242.38405172644121	831.2242412405068	0.0	266.971546110045	802.3803980036931	0.0	187.73994979068974	378.8833501464194	0.0	117.4862681883087	311.6212067322408	0.0	128.69949297631806	363.48711589273876	0.0	166.7029938338872	427.5211646713746	0.0	145.1552769975832	490.4428734271904	0.0	73.40451260030174	519.3587444317425	0.0	243.18100545399983	371.22592353993844	0.0	321.2463732355588	362.4272446313881	0.0	336.8854362897927	291.1738669762965	0.0
397	6.616666666666666	248.599169006334	543.6530974036407	0.0	221.49014695210965	545.6197494510185	0.0	210.52031290951408	663.4761569583798	0.0	221.77860790809862	772.5958890826496	0.0	185.4452936021895	809.7923273561502	0.0	182.64150807469971	796.8119863899327	0.0	233.256099767963	787.1548666236527	0.0	273.50215911790133	541.6143457628357	0.0	260.01546467278524	665.2978169676336	0.0	258.7193367132532	791.1823380604271	0.0	223.97157688977384	826.7152016220855	0.0	242.22742146789477	831.3491976015523	0.0	267.1432156292254	802.5263748527725	0.0	188.64338507569246	377.81320911582253	0.0	119.2939733982917	309.2947694438025	0.0	129.80121513933338	361.4432875586684	0.0	167.34688307236564	425.3649026590551	0.0	146.50682020698042	489.08099876224367	0.0	73.62959993878954	516.8032722037073	0.0	244.05108854437077	371.4652042060444	0.0	321.8503203425896	369.08189206274824	0.0	338.13813025777023	302.4174690663423	0.0
398	6.633333333333333	247.09007849537525	543.9669266023715	0.0	220.01569150113474	545.7356003602121	0.0	210.0083541437331	663.6443011262926	0.0	221.82236228626388	772.6289146380735	0.0	185.24000818120982	809.9228671271788	0.0	182.5917058401354	796.8881809297487	0.0	233.32913339025683	787.188812800288	0.0	271.84574580828263	542.2324224799404	0.0	258.8799774218378	665.6641711396912	0.0	258.6366340041385	791.5119821148422	0.0	223.80045954668128	826.9664384521607	0.0	242.05868157512683	831.5136913695245	0.0	267.29828754185974	802.711774008212	0.0	189.7096967361527	376.6589356896771	0.0	121.42176169334431	306.79050257054496	0.0	131.1121348266375	359.2640084170961	0.0	168.07108143437566	423.1262170220793	0.0	148.04062102506754	487.72842090953327	0.0	74.03737874927434	514.1312997439696	0.0	245.1833899072557	371.7621411173266	0.0	322.2347550893207	376.4318443977991	0.0	338.5492288806219	315.1581385379732	0.0
399	6.6499999999999995	245.53870568117293	544.3042833790271	0.0	218.537088842085	545.865009293066	0.0	209.4946262228343	663.7635219915635	0.0	221.8657249825038	772.6452154824381	0.0	185.0163661815648	810.0781953175197	0.0	182.5077732524153	796.976617722229	0.0	233.388658206096	787.1940424359599	0.0	270.14932376074336	542.8532961832868	0.0	257.747576833581	666.0265046159099	0.0	258.54363996162544	791.8832818516718	0.0	223.6302325551178	827.2340078699804	0.0	241.87965833157182	831.7154814076496	0.0	267.43052053437935	802.9326047848785	0.0	190.91518525051643	375.44253935301464	0.0	123.85663593845119	304.1752407788927	0.0	132.6135973441311	357.0010864263697	0.0	168.87788276995698	420.85117700189005	0.0	149.74788843357396	486.45088276057544	0.0	74.67638447455407	511.47940539849463	0.0	246.54298859224775	372.13555080041914	0.0	322.2935443757539	384.38269173272306	0.0	337.96153210154097	329.3405729597725	0.0
400	6.666666666666667	243.95604750080247	544.6507435741286	0.0	217.0691837705549	545.9988760445545	0.0	208.97789958600214	663.8378432205242	0.0	221.90286128442352	772.6418218548815	0.0	184.77505837772858	810.2537995321604	0.0	182.39019205498232	797.0802793287045	0.0	233.43599791263645	787.1717066148836	0.0	268.42683848584136	543.4600803092655	0.0	256.6356810356164	666.3884069930826	0.0	258.43708169120805	792.2878816322695	0.0	223.4651298474909	827.5125351882541	0.0	241.69326770996616	831.9514554899315	0.0	267.53533407014095	803.1780906713833	0.0	192.239017084744	374.1878186627537	0.0	126.58434799753961	301.5071805335313	0.0	134.29017180794358	354.70041772081635	0.0	169.7726800358788	418.57186208404426	0.0	151.6031764918105	485.29729683524147	0.0	75.56608117605818	508.9875887961268	0.0	248.08686333042192	372.60236056482523	0.0	321.9382567963428	392.81142389574967	0.0	336.2835739887436	344.86327418220344	0.0
401	6.683333333333334	242.3525620789309	544.9950852435675	0.0	215.62346039365215	546.1292462624082	0.0	208.45599534942298	663.8774013656454	0.0	221.92949439872137	772.6119584058363	0.0	184.51605380328405	810.4431128551722	0.0	182.240594239471	797.2032948321128	0.0	233.47647481625776	787.1232392361567	0.0	266.68786555848385	544.0405690466296	0.0	255.55890907402437	666.7583079743457	0.0	258.3136067132559	792.7098826416317	0.0	223.31187721454444	827.7934545662848	0.0	241.50744953441196	832.216217790331	0.0	267.6124114686769	803.433621582886	0.0	193.66305848496367	372.9181361121616	0.0	129.5851852380135	298.8357793662174	0.0	136.12710041812616	352.4039669660753	0.0	170.7600299861898	416.31109331543615	0.0	153.56222187732274	484.29741614655296	0.0	76.69470264353907	506.79754289923426	0.0	249.76669385598754	373.17500140782073	0.0	321.1070670687633	401.5600918888582	0.0	333.4930972417495	361.55948896549194	0.0
